<?xml version="1.0" encoding="UTF-8"?>
<svg xmlns="http://www.w3.org/2000/svg" xmlns:xlink="http://www.w3.org/1999/xlink" width="24px" height="24px" viewBox="0 0 24 24" version="1.1">
<g id="surface1">
<path style=" stroke:none;fill-rule:nonzero;fill:rgb(0%,0%,0%);fill-opacity:1;" d="M 12 22.625 L 2.046875 12.671875 C 0.847656 11.472656 0.183594 9.875 0.183594 8.171875 C 0.183594 6.472656 0.847656 4.875 2.046875 3.671875 C 3.25 2.472656 4.847656 1.808594 6.546875 1.808594 C 8.246094 1.808594 9.84375 2.472656 11.046875 3.671875 L 12 4.625 L 12.953125 3.671875 C 14.15625 2.472656 15.753906 1.808594 17.453125 1.808594 C 19.152344 1.808594 20.75 2.472656 21.953125 3.675781 C 23.152344 4.875 23.816406 6.472656 23.816406 8.171875 C 23.816406 9.875 23.152344 11.472656 21.953125 12.671875 Z M 6.546875 3.910156 C 5.410156 3.910156 4.339844 4.355469 3.535156 5.160156 C 2.726562 5.964844 2.285156 7.035156 2.285156 8.171875 C 2.285156 9.3125 2.726562 10.382812 3.535156 11.1875 L 12 19.652344 L 20.464844 11.1875 C 21.273438 10.382812 21.714844 9.3125 21.714844 8.171875 C 21.714844 7.035156 21.273438 5.964844 20.464844 5.160156 C 19.660156 4.355469 18.589844 3.910156 17.453125 3.910156 C 16.3125 3.910156 15.242188 4.355469 14.4375 5.160156 L 12 7.597656 L 9.5625 5.160156 C 8.757812 4.355469 7.6875 3.910156 6.546875 3.910156 Z M 6.546875 3.910156 "/>
</g>
</svg>
