<?xml version="1.0" encoding="UTF-8"?>
<svg xmlns="http://www.w3.org/2000/svg" xmlns:xlink="http://www.w3.org/1999/xlink" width="24px" height="24px" viewBox="0 0 24 24" version="1.1">
<g id="surface1">
<path style=" stroke:none;fill-rule:nonzero;fill:rgb(0%,0%,0%);fill-opacity:1;" d="M 11.992188 0.0078125 C 16.148438 0.0117188 20.007812 2.167969 22.191406 5.707031 C 24.375 9.246094 24.570312 13.660156 22.707031 17.378906 L 23.964844 22.402344 C 24.0625 22.796875 23.941406 23.210938 23.648438 23.492188 C 23.359375 23.773438 22.941406 23.878906 22.550781 23.769531 L 17.882812 22.453125 C 13.503906 24.910156 8.058594 24.378906 4.238281 21.125 C 0.417969 17.867188 -0.972656 12.578125 0.757812 7.867188 C 2.488281 3.152344 6.972656 0.0195312 11.992188 0.0078125 Z M 18.859375 5.132812 C 15.269531 1.542969 9.523438 1.320312 5.667969 4.621094 C 1.8125 7.925781 1.148438 13.636719 4.144531 17.734375 C 7.140625 21.832031 12.785156 22.933594 17.101562 20.261719 C 17.375 20.078125 17.714844 20.023438 18.035156 20.109375 L 21.273438 21.042969 L 20.394531 17.527344 C 20.316406 17.246094 20.355469 16.941406 20.496094 16.683594 C 20.890625 15.96875 21.191406 15.210938 21.394531 14.421875 C 22.246094 11.09375 21.28125 7.5625 18.859375 5.128906 Z M 18.859375 5.132812 "/>
</g>
</svg>
